<svg width="200" height="51" viewBox="0 0 200 51" fill="none" xmlns="http://www.w3.org/2000/svg">
<path d="M167.942 47.0947V0H174.789V19.3882C175.898 17.2979 177.412 15.6769 179.332 14.5251C181.294 13.3734 183.47 12.7975 185.859 12.7975C190.039 12.7975 193.431 14.3758 196.033 17.5325C198.678 20.6466 200 24.9124 200 30.33C200 35.7476 198.678 40.0348 196.033 43.1915C193.431 46.3055 190.061 47.8625 185.923 47.8625C183.321 47.8625 180.996 47.2013 178.948 45.8789C176.943 44.5565 175.386 42.6796 174.277 40.2481V47.0947H167.942ZM176.965 21.4998C175.301 23.718 174.469 26.6614 174.469 30.33C174.469 33.9986 175.301 36.942 176.965 39.1603C178.671 41.3785 180.953 42.4876 183.811 42.4876C186.712 42.4876 188.994 41.3785 190.658 39.1603C192.364 36.942 193.217 33.9986 193.217 30.33C193.217 26.6614 192.364 23.718 190.658 21.4998C188.994 19.2815 186.712 18.1724 183.811 18.1724C180.953 18.1724 178.671 19.2815 176.965 21.4998Z" fill="#BDDAFF"/>
<path d="M130.613 38.2005C130.613 32.0577 135.114 28.5597 144.115 27.7065L153.585 26.8107V24.2512C153.585 22.2889 152.966 20.7106 151.729 19.5162C150.535 18.3217 148.722 17.7245 146.29 17.7245C144.115 17.7245 142.323 18.2364 140.915 19.2602C139.507 20.2413 138.74 21.6917 138.612 23.6113H132.341C132.469 19.9001 133.813 17.17 136.372 15.421C138.932 13.672 142.238 12.7975 146.29 12.7975C150.855 12.7975 154.353 13.8853 156.784 16.0608C159.216 18.2364 160.431 21.4358 160.431 25.6589V47.0947H154.097V40.568C153.03 42.8715 151.43 44.6632 149.298 45.9429C147.165 47.2227 144.584 47.8626 141.555 47.8626C137.929 47.8626 135.199 46.9667 133.365 45.1751C131.53 43.3834 130.613 41.0586 130.613 38.2005ZM137.396 37.8805C137.396 39.4162 137.908 40.6746 138.932 41.6558C139.998 42.5943 141.576 43.0635 143.667 43.0635C146.695 43.0635 149.106 42.125 150.897 40.2481C152.689 38.3284 153.585 35.8756 153.585 32.8895V31.0979L145.01 31.9297C139.934 32.4416 137.396 34.4252 137.396 37.8805Z" fill="#BDDAFF"/>
<path d="M111.392 0.511902L127.581 50.806H121.374L105.185 0.511902H111.392Z" fill="#BDDAFF"/>
<path d="M73.7764 30.33C73.7764 24.5712 75.2695 20.22 78.2555 17.2766C81.2416 14.2905 85.2088 12.7975 90.1572 12.7975C100.608 12.7975 105.834 19.0256 105.834 31.4818V32.3136H80.6231C80.879 35.7689 81.8815 38.4138 83.6305 40.2481C85.4221 42.0397 87.747 42.9355 90.6051 42.9355C94.6576 42.9355 97.4091 41.2079 98.8595 37.7526L105.386 38.2005C104.49 41.2292 102.763 43.5967 100.203 45.3031C97.6864 47.0094 94.487 47.8626 90.6051 47.8626C85.4435 47.8626 81.3483 46.3908 78.3195 43.4474C75.2908 40.504 73.7764 36.1315 73.7764 30.33ZM80.6871 27.8345H99.0514C98.9235 24.6778 98.0703 22.2036 96.4919 20.412C94.9136 18.6203 92.802 17.7245 90.1572 17.7245C87.5124 17.7245 85.3368 18.5777 83.6305 20.284C81.9668 21.9903 80.9857 24.5072 80.6871 27.8345Z" fill="#FF5005"/>
<path d="M70.4016 18.7483H62.2752V36.7927C62.2752 38.7977 62.5525 40.1627 63.107 40.8879C63.7042 41.6131 64.8347 41.9757 66.4983 41.9757C67.6075 41.9757 68.9085 41.8691 70.4016 41.6558V47.1587C68.482 47.4573 66.7543 47.6066 65.2186 47.6066C61.7206 47.6066 59.2038 46.8814 57.6681 45.431C56.1751 43.938 55.4285 41.4211 55.4285 37.8805V18.7483H48.4539V13.6933H53.7009C54.4687 13.6933 55.002 13.544 55.3006 13.2454C55.6418 12.9041 55.8125 12.3709 55.8125 11.6457V6.0788H62.2752V13.5653H70.4016V18.7483Z" fill="#FF5005"/>
<path d="M14.9851 47.0947V13.5653H21.3198V19.7721C23.4527 15.1224 27.3986 12.7975 33.1575 12.7975C36.9114 12.7975 39.7695 13.8639 41.7318 15.9969C43.6941 18.0871 44.6752 21.1798 44.6752 25.275V47.0947H37.8285V27.4506C37.8285 21.4358 35.4397 18.4284 30.662 18.4284C27.8465 18.4284 25.6709 19.3669 24.1352 21.2438C22.5996 23.0781 21.8317 25.6163 21.8317 28.8583V47.0947H14.9851Z" fill="#FF5005"/>
<path d="M0 8.38233V0.767838H7.23057V8.38233H0ZM0.191962 47.0947V13.5653H7.03861V47.0947H0.191962Z" fill="#FF5005"/>
</svg>
